<!DOCTYPE svg PUBLIC "-//W3C//DTD SVG 20010904//EN" "http://www.w3.org/TR/2001/REC-SVG-20010904/DTD/svg10.dtd">
<svg version="1.0" xmlns="http://www.w3.org/2000/svg" width="1600px" height="1023px" viewBox="0 0 16000 10230" preserveAspectRatio="xMidYMid meet">
<g id="layer101" fill="#1b1b1b" stroke="none">
 <path d="M3958 8054 c-5 -4 -8 -18 -8 -30 0 -13 -9 -28 -21 -34 -12 -7 -18 -18 -15 -26 3 -9 1 -12 -4 -9 -16 10 -12 -56 4 -74 15 -16 19 -73 32 -431 9 -259 12 -308 16 -317 3 -4 5 -242 4 -528 -2 -518 -2 -520 -24 -555 -12 -19 -22 -44 -22 -56 0 -11 -5 -25 -11 -31 -9 -9 -8 -18 5 -37 9 -15 13 -26 9 -26 -5 -1 4 -8 20 -16 15 -8 27 -19 27 -24 0 -16 44 -11 87 10 46 22 47 25 59 175 8 104 10 819 2 825 -3 3 -2 27 3 54 5 26 7 51 5 55 -3 3 -7 60 -10 126 -4 66 -9 143 -12 170 -5 51 -15 336 -15 437 -1 32 -5 60 -10 64 -15 9 -10 41 8 48 34 13 574 -16 623 -34 14 -5 52 -11 85 -14 33 -2 67 -7 75 -10 8 -3 82 -7 164 -11 82 -3 152 -7 156 -10 4 -2 86 -7 181 -10 170 -4 319 -16 449 -36 36 -5 146 -14 245 -19 99 -6 194 -12 210 -15 17 -3 71 -7 120 -10 50 -3 117 -8 150 -10 33 -3 215 -12 405 -20 337 -15 564 -30 578 -39 14 -8 323 -16 817 -21 773 -8 1009 -13 1140 -24 66 -5 127 -10 135 -10 353 3 808 -14 975 -35 71 -9 438 -47 500 -52 33 -2 92 -7 130 -9 86 -7 270 -12 745 -21 399 -7 396 -7 555 -22 187 -19 256 -31 286 -52 31 -22 45 -53 33 -72 -5 -7 -9 -59 -11 -117 -1 -57 -7 -109 -12 -115 -5 -6 -5 -20 -1 -31 4 -12 0 -32 -12 -53 -24 -43 -24 -119 1 -151 12 -16 31 -25 63 -28 43 -5 49 -3 77 28 21 23 32 49 37 81 5 37 17 60 58 107 28 33 65 70 81 83 17 12 32 25 35 29 3 3 16 10 30 14 43 12 80 30 80 37 0 5 7 8 15 8 9 0 27 11 41 25 68 68 123 85 359 108 89 9 115 19 145 55 17 20 30 41 30 47 0 20 -60 106 -77 111 -10 4 -32 12 -50 20 -17 8 -38 14 -47 14 -8 0 -22 10 -31 23 -8 13 -49 41 -91 61 -41 21 -78 44 -81 51 -2 8 -28 24 -56 38 -29 14 -72 44 -97 67 -25 23 -63 49 -85 56 -22 8 -43 21 -48 29 -4 8 -15 15 -22 15 -8 0 -15 4 -15 8 0 5 -12 15 -27 23 -16 8 -36 24 -46 36 -32 40 -153 82 -196 68 -27 -8 -53 -87 -56 -169 -1 -40 -6 -80 -12 -89 -5 -10 -6 -43 -2 -75 3 -31 5 -60 3 -63 -3 -6 -101 -21 -139 -21 -20 0 -74 4 -295 23 -69 6 -316 13 -550 15 -234 1 -495 8 -580 14 -85 6 -189 12 -230 15 -41 3 -109 9 -150 15 -41 5 -124 15 -185 21 -60 5 -126 12 -145 14 -86 11 -229 22 -270 22 -25 0 -180 4 -345 8 -165 4 -309 7 -320 7 -11 0 -92 4 -180 9 -88 5 -191 12 -230 14 -38 2 -302 7 -585 10 -842 10 -1113 14 -1142 19 -16 2 -45 7 -65 10 -21 3 -108 10 -193 16 -144 9 -235 13 -595 25 -77 3 -192 9 -255 14 -63 5 -198 14 -300 20 -102 7 -246 20 -320 31 -74 11 -205 22 -290 25 -85 3 -222 12 -305 20 -82 8 -184 15 -225 15 -41 1 -95 5 -120 10 -156 32 -238 41 -430 50 -118 5 -260 12 -315 16 -55 3 -103 3 -107 -2z"/>
 <path d="M2159 4919 c-6 -3 -19 -5 -28 -2 -34 9 -101 -33 -133 -83 -45 -68 -57 -123 -57 -244 0 -119 3 -154 20 -196 7 -16 11 -39 10 -51 -1 -11 2 -24 8 -27 6 -4 8 -13 4 -21 -3 -8 -1 -15 5 -15 6 0 13 -18 17 -40 4 -22 11 -42 16 -46 5 -3 9 -14 9 -24 0 -10 6 -25 14 -33 16 -15 16 -44 0 -55 -12 -9 -11 -83 1 -102 5 -8 10 -21 12 -29 2 -17 54 -82 73 -92 51 -24 75 -28 165 -26 72 1 110 7 135 19 43 22 100 70 100 84 0 6 8 22 19 35 33 43 43 90 60 279 7 82 5 109 -19 215 -6 28 -12 60 -14 72 -1 12 -8 29 -15 37 -7 8 -10 20 -6 26 4 6 -1 23 -11 38 -25 37 -55 92 -50 92 4 0 -39 48 -92 103 -15 16 -40 35 -57 44 -16 9 -33 20 -36 26 -8 12 -135 26 -150 16z m141 -184 c8 -5 20 -10 25 -10 6 0 14 -10 20 -22 5 -13 13 -23 17 -23 5 0 8 -7 8 -15 0 -8 4 -15 8 -15 11 0 45 -60 39 -67 -3 -3 5 -23 19 -44 13 -21 24 -50 24 -64 0 -14 4 -25 8 -25 4 0 8 -65 8 -145 1 -80 -2 -145 -7 -145 -4 0 -11 -14 -14 -32 -11 -49 -44 -86 -91 -104 -54 -20 -70 -14 -79 28 -13 66 -16 70 -41 65 -18 -3 -28 1 -36 17 -6 11 -20 32 -33 46 -12 14 -27 49 -33 79 -7 29 -19 67 -26 85 -8 17 -20 64 -26 104 -14 97 -14 96 -24 103 -5 4 -5 13 0 20 9 15 10 20 12 61 3 42 56 96 104 105 53 11 100 10 118 -2z"/>
 <path d="M4070 4859 c-31 -12 -110 -95 -111 -118 -1 -9 -2 -47 -3 -86 -1 -38 -6 -80 -10 -92 -4 -12 -3 -24 2 -27 8 -5 1 -36 -26 -116 -8 -22 -10 -38 -17 -118 -3 -40 -11 -85 -16 -100 -6 -15 -12 -45 -14 -67 -15 -164 -15 -176 1 -208 36 -72 90 -109 184 -127 64 -12 124 6 177 55 41 37 43 42 37 78 -4 22 -14 41 -23 45 -9 3 -22 12 -29 19 -19 18 -39 16 -74 -8 -43 -31 -104 -31 -130 1 -16 20 -19 34 -14 74 3 27 11 53 18 58 10 6 10 8 1 8 -9 0 -10 7 -3 26 6 14 10 38 10 53 0 41 21 55 62 42 111 -37 159 -51 174 -51 54 0 118 87 93 127 -6 11 -27 25 -45 32 -17 6 -34 18 -37 25 -4 9 -30 17 -69 21 -35 4 -76 13 -92 21 -16 8 -35 14 -42 14 -10 0 -9 12 5 53 10 30 16 69 13 93 -3 34 0 43 20 56 32 21 86 32 101 20 7 -5 27 -13 44 -17 18 -3 42 -18 53 -32 26 -33 64 -53 100 -53 22 0 38 11 64 44 36 43 45 66 26 66 -5 0 -7 6 -5 13 3 7 -19 27 -50 46 -30 19 -55 39 -55 43 0 4 -8 8 -18 8 -9 0 -50 16 -89 35 -40 19 -81 35 -92 35 -11 0 -23 5 -26 10 -8 12 -62 12 -95 -1z"/>
 <path d="M4903 4735 c0 -19 -6 -41 -12 -49 -7 -8 -14 -52 -16 -98 -6 -107 -10 -143 -25 -198 -8 -28 -8 -46 -2 -48 12 -4 4 -42 -15 -63 -8 -9 -13 -20 -12 -25 1 -5 0 -16 -4 -24 -5 -14 -15 -87 -21 -155 -4 -51 -18 -109 -29 -123 -17 -22 -11 -103 10 -122 42 -41 55 -36 148 57 54 54 95 105 107 133 11 25 30 56 42 70 13 14 33 41 44 61 27 45 100 114 173 162 68 45 93 48 87 12 -3 -14 -3 -27 1 -29 3 -2 6 -63 6 -135 0 -72 3 -131 8 -131 5 0 5 -9 2 -20 -3 -11 -1 -35 6 -55 10 -25 10 -55 3 -115 l-10 -82 34 -34 c46 -47 70 -44 106 11 15 25 25 52 22 61 -3 8 -8 41 -11 72 -3 31 -8 67 -10 79 -3 11 -5 55 -6 96 -1 41 -5 80 -9 86 -4 7 -1 29 5 49 7 20 10 44 6 52 -12 23 7 203 22 215 23 17 36 51 31 80 -3 15 0 33 7 41 6 8 7 14 2 14 -6 0 -22 12 -37 26 -14 15 -26 23 -26 19 0 -4 -12 1 -27 10 -26 17 -27 17 -46 -6 -10 -13 -29 -30 -42 -39 -13 -8 -47 -31 -76 -51 -30 -20 -68 -44 -86 -55 -72 -44 -197 -161 -236 -221 -27 -43 -67 -62 -52 -25 4 9 11 53 16 97 5 44 16 99 25 122 8 24 13 46 10 51 -3 5 -1 24 4 43 6 19 12 57 14 85 4 48 2 54 -25 79 -17 14 -39 27 -49 28 -11 1 -22 7 -24 14 -11 27 -32 13 -33 -22z"/>
 <path d="M3027 4743 c-9 -3 -29 -24 -43 -49 -14 -24 -33 -48 -42 -53 -14 -8 -14 -11 -2 -25 14 -18 23 -92 13 -109 -3 -6 -8 -42 -10 -81 -2 -39 -8 -75 -13 -82 -6 -6 -8 -13 -5 -15 6 -6 6 -78 0 -119 -3 -19 -7 -73 -10 -119 -3 -58 -9 -87 -20 -95 -8 -6 -16 -27 -19 -47 -3 -28 2 -43 23 -68 15 -17 34 -31 44 -31 9 0 17 -4 17 -8 0 -10 89 -51 110 -50 8 0 48 -5 89 -10 70 -10 77 -9 150 20 96 38 161 88 202 152 30 49 31 54 26 136 -5 79 -24 141 -48 155 -5 4 -9 14 -9 24 0 9 -15 28 -32 41 -18 13 -48 38 -66 55 -19 16 -38 30 -43 30 -6 0 -13 5 -17 10 -23 33 -125 53 -182 38 -19 -6 -40 -8 -46 -6 -11 4 -8 56 6 88 22 52 33 99 22 103 -6 2 -7 13 -2 31 8 29 -16 71 -42 71 -8 0 -18 4 -23 8 -6 5 -18 7 -28 5z m248 -479 c32 -8 55 -26 55 -43 0 -6 11 -18 24 -26 16 -11 27 -30 31 -56 4 -21 10 -41 15 -44 14 -9 -2 -54 -34 -89 -25 -29 -40 -37 -81 -41 -27 -4 -66 -11 -85 -17 -25 -8 -35 -8 -38 1 -2 6 -18 11 -36 11 -38 0 -71 21 -64 41 3 8 2 24 -3 35 -4 12 -4 37 0 55 4 19 4 45 1 59 -5 17 -1 36 12 58 11 17 16 32 11 32 -4 0 3 9 17 20 20 16 36 19 85 15 33 -2 73 -7 90 -11z"/>
 <path d="M5937 4626 c-26 -7 -50 -16 -54 -20 -4 -3 -8 -41 -9 -83 -2 -65 0 -79 15 -90 10 -7 21 -26 24 -42 3 -16 17 -40 31 -54 31 -31 69 -26 113 16 l32 30 -4 100 c-4 103 -14 126 -56 127 -9 0 -19 7 -23 15 -6 18 -7 18 -69 1z"/>
 <path d="M5864 4218 c-17 -8 -21 -20 -23 -60 -1 -28 -4 -54 -6 -58 -6 -9 -14 -154 -19 -335 -3 -129 -16 -218 -36 -255 -9 -16 -8 -20 5 -20 8 0 15 -6 15 -13 0 -7 17 -31 38 -54 36 -40 38 -41 67 -29 60 26 70 48 71 155 0 53 3 102 7 107 3 6 5 53 3 105 -4 106 7 269 24 344 7 34 7 51 0 53 -5 2 -10 14 -10 26 0 39 -83 60 -136 34z"/>
 <path d="M2050 2847 c-14 -7 -29 -22 -35 -35 -5 -12 -13 -22 -17 -22 -28 0 -61 -147 -61 -270 0 -48 11 -165 16 -180 4 -8 9 -37 12 -65 3 -27 7 -65 9 -84 2 -18 9 -38 15 -44 6 -6 11 -23 11 -38 0 -15 4 -29 10 -31 5 -1 11 -14 12 -28 2 -14 7 -28 11 -31 4 -3 10 -19 13 -35 3 -16 12 -33 20 -37 8 -4 14 -15 14 -22 0 -8 4 -15 10 -15 5 0 7 -7 4 -15 -4 -9 3 -19 20 -26 18 -8 26 -20 26 -36 0 -16 18 -41 51 -74 28 -28 49 -53 45 -56 -7 -8 25 -32 43 -33 8 0 22 -6 30 -13 17 -14 89 -38 133 -43 17 -2 36 5 56 24 28 25 30 32 28 84 -5 84 -13 90 -133 91 -34 0 -60 4 -57 9 3 4 -4 13 -16 20 -11 7 -20 21 -20 30 0 10 -6 18 -12 18 -22 1 -49 27 -51 49 -1 12 -4 21 -8 21 -4 0 -10 8 -13 18 -9 24 -30 59 -49 80 -9 10 -14 27 -11 39 4 13 -1 28 -14 41 -19 19 -44 114 -57 212 -3 25 -8 61 -11 80 -21 148 -11 190 58 240 36 26 49 30 109 30 37 0 71 -4 74 -10 3 -5 19 -10 35 -10 16 0 32 -5 35 -11 4 -5 18 -14 32 -20 13 -5 21 -13 18 -19 -3 -5 0 -10 8 -10 20 0 101 -66 117 -95 19 -36 53 -32 85 10 18 23 25 41 20 54 -10 33 -144 161 -168 161 -8 0 -18 7 -21 15 -23 60 -346 122 -426 82z"/>
 <path d="M6221 2773 c-58 -57 -119 -101 -206 -147 -27 -14 -79 -42 -113 -61 -35 -19 -68 -35 -74 -35 -5 0 -21 -9 -35 -20 -14 -11 -30 -20 -34 -20 -13 0 -11 38 2 45 6 4 8 13 5 20 -2 7 0 17 6 23 6 6 11 27 10 46 -1 19 3 38 8 41 16 10 12 45 -5 45 -8 0 -15 7 -15 15 0 10 -10 15 -30 15 -16 0 -30 4 -30 8 0 5 -6 9 -12 10 -7 0 -23 4 -34 7 -17 5 -23 2 -28 -18 -3 -14 -4 -32 -1 -39 3 -8 -5 -27 -18 -42 -23 -26 -23 -30 -10 -57 8 -16 11 -34 6 -41 -4 -7 -8 -83 -10 -168 -1 -85 -4 -198 -8 -250 -7 -122 -13 -227 -14 -264 -1 -16 -4 -26 -7 -23 -4 4 -19 -13 -34 -37 -15 -24 -34 -45 -42 -49 -11 -4 -14 -19 -12 -54 3 -67 10 -80 50 -88 31 -5 42 -1 85 32 56 42 105 128 87 151 -7 8 -7 12 0 12 5 0 10 17 10 38 0 20 4 79 9 130 4 50 5 92 1 92 -7 0 -3 65 8 116 8 43 64 36 64 -8 0 -10 7 -21 15 -24 8 -3 17 -15 20 -25 4 -11 17 -31 31 -46 13 -14 21 -29 18 -34 -3 -5 0 -9 6 -9 14 0 40 -25 40 -39 0 -6 5 -11 10 -11 6 0 10 -7 10 -15 0 -8 6 -15 14 -15 16 0 65 -69 84 -119 8 -20 15 -58 16 -86 4 -79 4 -80 35 -103 l29 -21 47 43 c35 31 46 48 42 62 -4 10 -7 38 -9 62 -1 23 -6 42 -11 42 -5 0 -7 9 -4 19 3 12 -1 22 -9 25 -8 3 -14 14 -14 24 0 24 -63 128 -101 167 -16 17 -29 37 -29 43 0 7 -7 15 -15 18 -8 4 -15 10 -15 14 0 4 -18 27 -40 51 -22 24 -40 49 -40 56 0 6 -6 18 -12 25 -7 7 -14 19 -15 26 -2 6 -4 17 -5 24 -3 10 24 26 170 97 52 26 200 136 276 207 39 37 73 106 55 112 -5 2 -16 16 -23 31 -12 22 -22 27 -57 28 -38 2 -46 -3 -98 -54z"/>
 <path d="M3206 2805 c-27 -7 -55 -21 -63 -31 -7 -11 -17 -24 -22 -30 -19 -23 -38 -101 -40 -164 -1 -36 -4 -73 -7 -82 -3 -10 -2 -18 3 -18 4 0 9 -36 10 -80 1 -44 7 -96 12 -116 7 -24 7 -43 1 -55 -6 -10 -6 -20 -2 -23 12 -7 13 -254 1 -262 -5 -3 -7 -14 -4 -25 4 -10 -1 -34 -10 -51 -8 -18 -18 -60 -21 -93 -5 -57 -3 -62 17 -71 17 -8 35 -6 73 8 58 22 75 41 76 83 4 244 8 392 11 400 1 6 -1 30 -6 55 -5 25 -10 70 -11 100 -1 30 -3 64 -5 75 -1 11 -2 52 -1 92 l2 71 48 29 c45 27 102 34 102 12 0 -5 7 -9 15 -9 19 0 125 -104 125 -123 0 -8 6 -20 14 -27 8 -6 13 -17 10 -25 -9 -23 33 -28 66 -8 36 21 45 48 34 101 -4 20 -6 42 -5 49 1 6 -10 20 -24 31 -14 11 -25 25 -25 31 0 6 -4 11 -9 11 -5 0 -24 15 -43 33 -44 42 -76 67 -86 67 -4 0 -25 9 -47 20 -22 11 -49 20 -62 20 -12 0 -25 5 -28 10 -8 13 -39 12 -99 -5z"/>
 <path d="M4103 2764 c-20 -10 -30 -21 -26 -30 3 -8 1 -14 -3 -14 -5 0 -10 -10 -11 -22 -8 -84 -13 -119 -18 -127 -3 -5 -1 -12 4 -15 5 -4 5 -22 0 -45 -5 -21 -9 -65 -11 -97 -1 -33 -4 -63 -7 -69 -5 -8 -9 -117 -9 -230 0 -16 0 -34 -1 -40 0 -5 -2 -48 -5 -95 -3 -47 -5 -85 -6 -85 -1 0 -3 -7 -5 -16 -6 -35 -18 -64 -27 -70 -6 -4 -11 -33 -13 -65 -3 -62 16 -104 48 -104 20 0 67 39 67 55 0 8 9 20 19 27 11 8 21 20 23 28 2 8 9 19 16 25 7 6 13 32 13 60 0 28 0 59 1 70 0 11 2 119 3 240 1 153 5 227 14 243 7 13 12 35 11 50 -1 15 -1 29 0 32 1 3 3 32 4 65 2 33 4 72 4 87 1 14 14 41 28 58 15 17 24 34 20 37 -3 4 -6 4 -6 0 0 -3 -11 5 -25 18 -13 14 -33 25 -44 25 -11 0 -21 4 -23 10 -2 5 -17 2 -35 -6z"/>
 <path d="M7885 2724 c-12 -26 -16 -50 -11 -80 4 -29 2 -44 -5 -44 -8 0 -8 -4 -1 -12 6 -8 9 -48 6 -97 -2 -46 -1 -88 2 -93 10 -15 8 -414 -1 -429 -5 -7 -8 -26 -7 -40 4 -45 -82 -94 -103 -59 -3 6 -23 10 -44 10 -20 0 -59 11 -87 24 -58 28 -91 37 -110 29 -21 -8 -55 -79 -48 -97 3 -9 1 -16 -5 -16 -33 0 4 -35 46 -43 10 -2 25 -7 33 -10 8 -3 29 -8 45 -12 17 -4 38 -14 48 -22 9 -9 20 -13 23 -10 4 4 20 -3 37 -15 17 -12 37 -22 46 -23 54 -7 101 -19 101 -26 0 -4 21 -8 48 -8 26 -1 101 -7 167 -14 145 -16 186 -9 234 42 l34 35 -22 41 c-11 22 -21 45 -21 52 0 15 -37 36 -50 28 -5 -3 -15 1 -22 8 -8 10 -22 11 -43 6 -58 -15 -120 -25 -135 -22 -14 3 -16 39 -17 271 -1 147 -2 294 -3 327 0 33 0 109 1 168 2 122 -6 139 -70 157 -49 14 -47 14 -66 -26z"/>
 <path d="M4825 2680 c-11 -5 -38 -14 -61 -20 -58 -14 -129 -80 -160 -149 -14 -31 -30 -65 -35 -76 -5 -11 -11 -58 -15 -105 -3 -47 -7 -102 -9 -122 -2 -21 0 -38 4 -38 8 0 9 -2 17 -74 4 -27 15 -63 25 -80 10 -17 19 -41 19 -52 0 -12 7 -25 16 -28 8 -3 13 -10 10 -15 -3 -5 5 -16 19 -25 14 -9 25 -23 25 -32 0 -8 16 -28 35 -45 19 -17 35 -37 35 -43 0 -17 46 -55 98 -83 64 -34 117 -31 188 12 68 41 74 48 74 98 0 27 -5 39 -17 43 -10 3 -34 13 -52 22 -19 9 -40 15 -45 13 -6 -2 -37 -6 -68 -10 -52 -7 -59 -5 -89 21 -17 15 -35 28 -38 28 -10 0 -51 78 -51 96 0 8 -7 17 -15 20 -8 4 -15 15 -15 25 0 10 -4 19 -9 19 -4 0 -6 11 -3 25 2 14 -1 32 -8 40 -19 23 -29 152 -13 178 3 5 7 25 8 44 1 21 12 44 28 61 15 16 27 36 27 45 0 30 66 49 175 50 119 1 180 -20 171 -57 -5 -19 1 -24 40 -34 30 -8 51 -9 63 -3 22 12 53 103 38 113 -6 3 -12 13 -13 21 -2 17 -40 57 -53 57 -4 0 -19 8 -32 18 -13 10 -42 24 -64 31 -52 16 -224 24 -250 11z"/>
 <path d="M8742 2581 c-35 -15 -68 -33 -74 -39 -7 -7 -17 -12 -24 -12 -15 0 -146 -125 -142 -137 1 -4 -4 -18 -11 -31 -29 -54 -45 -231 -24 -266 4 -6 8 -26 10 -45 2 -20 7 -38 11 -41 4 -3 7 -9 7 -15 1 -19 29 -85 37 -85 4 0 8 -6 8 -13 0 -7 9 -23 20 -35 11 -12 20 -26 20 -32 0 -6 14 -24 30 -40 17 -16 30 -36 30 -44 0 -9 12 -19 28 -22 15 -4 46 -15 70 -25 70 -30 168 -42 227 -28 61 14 143 67 191 123 49 56 121 217 107 239 -10 17 -15 83 -11 139 2 21 0 39 -4 40 -4 2 -10 26 -13 53 -10 94 -13 103 -34 124 -12 12 -21 26 -21 31 0 12 -81 100 -93 100 -4 0 -20 11 -35 26 -15 14 -40 28 -55 31 -16 3 -31 12 -34 18 -3 9 -29 13 -81 14 -64 0 -88 -5 -140 -28z m194 -142 c25 -6 50 -19 57 -28 7 -9 20 -20 30 -26 28 -15 77 -116 84 -170 1 -16 6 -37 9 -45 11 -28 13 -111 4 -136 -6 -13 -19 -34 -30 -46 -11 -12 -20 -27 -20 -33 0 -20 -43 -53 -103 -81 -54 -24 -65 -26 -145 -20 -75 6 -91 11 -114 33 -16 15 -28 31 -28 36 0 5 -9 22 -20 37 -11 16 -20 32 -18 37 1 7 -11 39 -31 83 -4 8 -7 45 -6 81 1 59 5 71 38 116 35 48 178 155 222 166 11 2 21 5 23 6 2 0 23 -4 48 -10z"/>
 <path d="M14010 2190 c-12 -8 -11 -10 8 -10 12 0 22 5 22 10 0 13 -11 13 -30 0z"/>
 </g>

</svg>