<!DOCTYPE svg PUBLIC "-//W3C//DTD SVG 20010904//EN" "http://www.w3.org/TR/2001/REC-SVG-20010904/DTD/svg10.dtd">
<svg version="1.0" xmlns="http://www.w3.org/2000/svg" width="958px" height="1058px" viewBox="0 0 9580 10580" preserveAspectRatio="xMidYMid meet">
<g id="layer101" fill="#06150e" stroke="none">
 <path d="M1090 10448 c-74 -5 -202 -10 -285 -12 -225 -5 -432 -16 -509 -27 -111 -15 -162 -66 -190 -187 -13 -57 -12 -115 5 -526 10 -253 21 -567 24 -696 3 -129 9 -341 13 -470 5 -129 8 -275 7 -325 -9 -326 -17 -594 -26 -820 -5 -143 -9 -359 -8 -480 2 -121 3 -247 3 -280 0 -80 10 -352 46 -1245 80 -1975 110 -2675 120 -2790 6 -69 19 -348 30 -620 11 -272 24 -544 29 -605 6 -60 17 -193 25 -295 19 -240 37 -305 140 -516 94 -191 142 -253 211 -273 22 -7 117 -16 210 -21 121 -6 200 -16 275 -34 121 -29 124 -29 1170 -45 607 -10 1070 -24 1650 -51 368 -17 636 -21 1190 -19 294 1 830 1 1190 0 655 -1 878 5 1475 43 596 39 981 70 1155 96 36 5 68 10 71 10 3 0 12 -25 18 -57 17 -72 46 -103 98 -103 44 1 64 13 86 56 13 26 17 81 21 310 3 154 7 308 9 344 2 36 7 270 11 520 3 250 11 554 16 675 5 121 9 486 9 810 -1 333 4 706 11 856 10 203 10 341 2 590 -6 178 -12 416 -12 529 0 113 -5 313 -10 445 -29 725 -25 1644 9 2090 78 1001 84 1232 49 2035 -14 344 -29 665 -34 713 -8 100 -25 131 -77 145 -18 4 -180 5 -362 0 -550 -13 -684 -11 -840 11 -77 11 -250 27 -385 36 -135 9 -324 23 -420 31 -96 8 -337 17 -535 19 -198 2 -475 11 -615 19 -515 31 -882 39 -1190 25 -280 -12 -918 -12 -1090 0 -533 39 -733 51 -940 56 -296 8 -507 15 -780 26 -333 14 -899 17 -1070 7z m1060 -193 c63 -3 318 -12 565 -20 496 -17 606 -23 1185 -65 179 -13 646 -12 1076 2 381 12 966 1 1194 -23 52 -5 322 -13 600 -18 278 -5 512 -11 520 -14 8 -3 98 -11 200 -17 351 -20 495 -31 600 -48 84 -14 169 -17 425 -16 176 1 354 6 395 12 41 6 133 12 205 14 l130 3 22 -525 c37 -870 30 -1173 -47 -2090 -46 -545 -52 -1065 -25 -2170 22 -896 24 -1445 7 -1845 -6 -154 -14 -489 -17 -745 -3 -256 -10 -550 -15 -655 -5 -104 -13 -390 -16 -635 -4 -245 -8 -488 -9 -540 -5 -167 -27 -525 -34 -532 -3 -3 -94 -9 -201 -12 -347 -11 -1650 -37 -1815 -37 -723 1 -2419 11 -2620 16 -319 7 -583 15 -660 20 -60 4 -206 9 -675 24 -135 4 -434 9 -665 10 -231 1 -510 6 -620 11 -110 5 -267 10 -350 10 -124 0 -168 4 -250 24 -117 28 -167 34 -334 41 -87 3 -130 9 -147 20 -24 15 -120 198 -168 320 -15 38 -32 95 -37 125 -11 64 -65 1349 -79 1870 -9 344 -16 532 -80 2050 -17 393 -41 990 -55 1325 -23 541 -33 1094 -21 1114 3 4 8 146 11 316 4 171 10 402 14 515 7 224 5 305 -39 1355 -16 391 -26 722 -23 738 3 15 9 30 14 32 8 5 143 14 634 40 235 13 891 12 1205 0z"/>
 <path d="M4765 9513 c-64 -8 -180 -36 -219 -53 -80 -35 -113 -97 -95 -178 27 -123 75 -275 110 -351 21 -46 39 -85 39 -87 0 -11 -48 0 -131 31 -116 43 -226 60 -338 51 -167 -12 -240 -49 -282 -141 -30 -67 -41 -263 -24 -425 16 -156 21 -178 108 -480 80 -275 130 -465 157 -590 36 -165 91 -453 88 -461 -4 -9 -269 123 -373 186 -44 26 -170 107 -280 180 -110 72 -238 153 -285 180 -47 26 -123 77 -168 113 -173 134 -464 291 -677 365 -215 74 -489 107 -606 72 -77 -23 -138 -77 -170 -147 -21 -47 -24 -68 -24 -181 l0 -128 -25 -5 c-60 -13 -115 -36 -147 -60 -46 -35 -129 -163 -148 -227 -19 -65 -19 -185 0 -407 15 -167 27 -257 94 -725 16 -115 37 -266 46 -335 30 -220 110 -584 183 -825 150 -495 425 -1101 664 -1460 106 -159 351 -456 647 -785 238 -264 392 -416 586 -575 206 -168 282 -234 445 -385 319 -295 396 -351 508 -366 58 -7 163 16 235 52 209 106 492 377 709 679 l72 100 106 52 c58 29 151 77 207 106 142 75 263 112 451 138 377 51 509 89 720 210 219 126 333 220 544 446 181 196 215 237 320 393 128 190 191 363 205 560 5 88 9 100 49 171 63 110 206 428 242 540 48 149 55 215 48 464 -7 244 -5 261 87 665 46 202 54 303 32 445 -69 465 -212 768 -624 1320 -348 466 -507 635 -943 1008 -326 278 -860 559 -1334 703 -134 41 -205 57 -355 84 -63 11 -154 31 -204 45 -85 24 -162 29 -250 18z m-416 -869 c83 -28 383 -171 505 -240 45 -26 194 -122 331 -214 232 -154 491 -318 610 -386 76 -43 387 -239 502 -316 170 -113 353 -257 443 -348 93 -93 139 -171 258 -436 65 -145 107 -213 260 -423 147 -201 185 -268 278 -486 86 -201 107 -276 143 -512 33 -214 74 -939 67 -1198 -3 -163 -21 -236 -85 -363 -42 -84 -160 -258 -222 -328 -282 -319 -456 -463 -714 -590 -131 -64 -251 -96 -450 -119 -77 -8 -165 -20 -195 -26 -86 -16 -248 -68 -327 -104 -40 -19 -73 -33 -73 -32 0 1 21 49 46 107 118 272 183 550 187 795 2 158 -4 188 -43 200 -27 9 -58 -2 -70 -25 -5 -10 -12 -62 -15 -116 -7 -126 -11 -157 -41 -279 -54 -221 -141 -447 -226 -587 -163 -269 -460 -666 -632 -846 -159 -167 -315 -272 -403 -272 -73 0 -101 21 -430 320 -81 74 -247 219 -368 322 -347 293 -472 428 -1009 1087 -212 261 -335 452 -464 721 -297 619 -507 1281 -597 1875 -8 55 -24 155 -35 222 -53 319 -62 377 -80 508 -29 219 -52 484 -45 529 8 49 48 126 82 158 21 20 37 23 114 26 106 5 95 10 359 -156 102 -64 259 -154 349 -200 90 -46 192 -106 225 -132 123 -96 301 -199 516 -300 l220 -103 -21 -23 c-11 -12 -23 -39 -25 -61 -8 -66 17 -92 168 -169 482 -248 737 -325 866 -263 24 12 47 18 51 13 10 -11 48 -315 61 -494 34 -460 12 -1033 -55 -1410 -30 -166 -44 -205 -96 -265 -37 -42 -60 -44 -199 -15 -111 23 -204 66 -309 145 -41 30 -80 55 -88 55 -18 0 -63 -45 -63 -62 0 -46 124 -153 245 -213 160 -80 337 -113 439 -83 54 16 133 96 169 171 41 84 82 256 116 477 60 398 68 507 69 905 1 388 -20 707 -62 930 -8 44 -27 148 -42 230 -42 237 -161 839 -190 960 -35 144 -97 376 -133 495 -116 379 -141 469 -158 550 -15 78 -18 250 -5 355 7 59 8 60 42 67 57 10 170 -2 249 -28z m957 -159 c348 -90 493 -164 743 -379 167 -144 259 -209 622 -443 399 -258 523 -343 650 -450 254 -213 463 -557 592 -973 91 -292 134 -517 168 -870 29 -299 23 -429 -24 -567 -19 -56 -40 -110 -45 -120 -9 -16 -11 -15 -16 7 -2 14 -8 95 -11 180 -11 271 -51 572 -101 760 -28 102 -138 369 -211 513 -25 48 -91 152 -146 230 -178 252 -211 309 -267 448 -71 179 -157 350 -214 426 -85 112 -257 253 -537 438 -134 88 -207 133 -675 413 -228 137 -595 371 -624 398 -19 18 -19 18 96 -11z m-2615 -1521 c13 -16 12 -16 -11 -4 -34 17 -120 73 -120 77 0 8 118 -57 131 -73z m766 -401 c-4 -3 -10 -3 -14 0 -3 4 0 7 7 7 7 0 10 -3 7 -7z"/>
 </g>
<g id="layer102" fill="#f7db7e" stroke="none">
 <path d="M4099 8663 c-31 -5 -36 -29 -45 -201 -7 -130 8 -206 93 -492 156 -523 205 -705 252 -940 17 -85 42 -211 56 -280 110 -545 162 -853 174 -1027 5 -73 12 -137 15 -142 9 -13 10 -756 2 -896 -7 -135 -13 -186 -56 -476 -52 -348 -103 -517 -186 -608 -75 -84 -155 -104 -305 -76 -163 30 -295 90 -404 186 -103 89 -119 141 -55 174 36 19 49 14 136 -51 38 -30 99 -68 133 -84 76 -37 207 -70 277 -70 47 0 55 3 84 36 38 44 46 64 71 176 103 471 116 1299 29 1896 -14 91 -18 94 -75 61 -31 -19 -44 -20 -111 -14 -110 10 -235 47 -397 115 -200 85 -476 230 -501 264 -27 36 -28 106 -3 134 18 20 16 42 -3 42 -4 0 -93 40 -197 88 -195 92 -392 208 -501 294 -35 28 -132 85 -215 127 -84 42 -233 128 -332 191 -234 148 -279 170 -351 177 -91 7 -131 -10 -179 -81 l-40 -58 2 -147 c1 -80 9 -198 18 -261 9 -63 20 -149 26 -190 12 -84 108 -689 140 -875 79 -466 294 -1123 536 -1635 186 -394 276 -526 723 -1065 332 -400 496 -571 745 -780 176 -147 336 -286 460 -400 176 -162 277 -247 314 -262 43 -18 91 -10 151 25 25 15 57 33 72 42 44 25 163 127 235 204 201 211 558 703 670 921 126 247 222 598 223 813 0 64 3 76 25 97 13 14 34 25 45 25 11 0 32 -11 45 -25 24 -23 25 -29 25 -164 0 -150 -21 -300 -65 -473 -27 -103 -101 -311 -135 -378 -28 -56 -26 -63 18 -44 169 74 357 121 562 139 100 9 251 41 325 70 123 48 304 156 427 253 158 126 401 388 505 545 118 180 207 409 183 473 -5 13 -7 74 -4 136 11 208 -36 975 -72 1168 -43 236 -59 288 -172 538 -67 148 -122 240 -227 381 -134 180 -215 308 -256 402 -22 52 -74 160 -116 241 -92 181 -136 231 -340 390 -203 159 -378 274 -828 546 -132 80 -355 221 -495 315 -302 201 -460 294 -670 393 -243 114 -332 137 -461 117z"/>
 <path d="M5225 8493 c23 -22 374 -245 565 -359 596 -356 767 -465 964 -613 294 -221 354 -302 511 -696 50 -124 114 -232 260 -435 103 -143 157 -240 236 -417 112 -252 173 -471 194 -693 3 -36 10 -92 16 -125 6 -33 16 -152 22 -265 l13 -205 23 60 c53 138 65 203 64 340 -2 237 -61 694 -117 905 -14 52 -28 106 -32 120 -27 115 -118 360 -180 488 -139 289 -281 474 -494 648 -69 56 -362 257 -555 380 -404 258 -491 320 -674 477 -242 208 -375 278 -675 357 -64 17 -124 34 -134 37 -11 4 -14 3 -7 -4z"/>
 </g>

</svg>